<?xml version="1.0" encoding="utf-8"?>
<!-- Svg Vector Icons : http://www.onlinewebfonts.com/icon -->
<!DOCTYPE svg PUBLIC "-//W3C//DTD SVG 1.1//EN" "http://www.w3.org/Graphics/SVG/1.1/DTD/svg11.dtd">
<svg version="1.1" xmlns="http://www.w3.org/2000/svg" xmlns:xlink="http://www.w3.org/1999/xlink" x="0px" y="0px" viewBox="0 0 256 256" enable-background="new 0 0 256 256" xml:space="preserve">
<metadata> Svg Vector Icons : http://www.onlinewebfonts.com/icon </metadata>
<g><g><g><path fill="#000000" d="M119.6,6.1c-19.5,1.7-34.9,6-50.5,14c-17.9,9.3-32,21.7-42.5,37.6c-8.5,12.7-13.6,25.8-15.9,40.6c-1.2,7.8-1.1,21.5,0.2,29.4c4.6,26.9,19.1,49.9,41.9,66.9c19.6,14.5,42.9,22.6,69.4,24.1l5.9,0.3l0.1,15.5l0.1,15.5l15.3-11.1c32.1-23.4,56.5-41.8,65.7-49.5c19.2-16.1,32.4-39.8,35.8-64.1c1-6.6,0.8-20.5-0.2-27c-4.3-27-18.6-50.5-41.1-67.4c-17.3-13-36.3-20.7-59-23.9C139.7,6.3,124.1,5.7,119.6,6.1z M69.3,101.1c5.4,1.6,9.5,6,11,11.7c1.9,7.4-2.4,15.5-9.8,18.3c-3.9,1.5-9.4,1.1-12.9-0.8c-8.6-4.7-11-15.4-5.3-23.4C56.1,101.7,63.1,99.3,69.3,101.1z M132.4,101.1c3.6,1.1,6.8,3.4,8.8,6.5c5.2,8,2.4,18.3-6.3,22.9c-1.8,1-2.8,1.1-6.8,1.1c-4.4,0-5-0.1-7.3-1.4c-6.4-3.6-9.7-10.9-8-17.7C115.1,103.7,123.8,98.6,132.4,101.1z M195.4,101.1c7.5,2.2,12.6,10.1,11.2,17.5c-2.7,15.3-22.9,18.3-29.7,4.5c-2.5-5.2-2.1-11.1,1.1-15.8C181.9,101.8,189.1,99.2,195.4,101.1z"/></g></g></g>
</svg>