<svg width="267" height="709" viewBox="0 0 267 709" fill="none" xmlns="http://www.w3.org/2000/svg">
<g opacity="0.14">
<path d="M-449.535 181.095C-500.2 -2.50245 -312.515 -21.1904 -177.068 34.2464C-98.0414 62.7568 -46.1431 -25.9085 51.7559 9.47671C149.655 44.8619 32.2943 156.325 182.092 213.531C331.889 270.737 258.759 526.69 127.834 529.639C-3.09119 532.588 32.8838 575.64 -98.0414 674.129C-228.967 772.617 -449.534 635.794 -394.687 491.305C-339.84 346.815 -394.688 379.842 -449.535 181.095Z" stroke="#1A93FE" stroke-width="1.2494"/>
<path d="M-423.922 193.192C-470.513 24.6961 -297.4 5.14248 -172.266 56.634C-98.59 83.5548 -49.5433 2.27411 40.689 34.8893C132.934 68.2339 25.0488 170.187 162.679 223.589C300.625 277.295 234.986 514.431 111.903 517.112C-10.4588 519.792 23.2448 560.552 -98.2784 650.806C-219.802 741.06 -423.153 615.452 -373.292 480.878C-323.431 348.315 -373.176 376.519 -423.922 193.192Z" stroke="#1A93FE" stroke-width="1.2494"/>
<path d="M-398.308 205.29C-440.825 51.8949 -282.286 31.4756 -167.463 79.022C-99.1385 104.353 -52.9434 30.457 29.6221 60.3021C116.214 91.6062 17.8034 184.049 143.267 233.648C269.36 283.853 211.212 502.172 95.9723 504.584C-17.8263 506.997 13.6059 545.465 -98.5153 627.484C-210.636 709.503 -396.772 595.11 -351.897 470.451C-307.022 349.814 -351.664 373.197 -398.308 205.29Z" stroke="#1A93FE" stroke-width="1.2494"/>
<path d="M-372.695 217.389C-411.137 79.0947 -267.171 57.8097 -162.66 101.411C-99.687 125.152 -56.3434 58.6407 18.5552 85.7158C99.4935 114.979 10.558 197.912 123.855 243.707C238.096 290.412 187.439 489.914 80.0414 492.058C-25.1938 494.203 3.96695 530.379 -98.7521 604.162C-201.471 677.946 -370.39 574.769 -330.502 460.025C-290.613 351.314 -330.151 369.875 -372.695 217.389Z" stroke="#1A93FE" stroke-width="1.2494"/>
<path d="M-347.082 229.488C-381.449 106.295 -252.056 84.1444 -157.857 123.8C-100.235 145.952 -59.7432 86.8251 7.48871 111.13C82.7735 138.353 3.31299 211.775 104.443 253.767C206.833 296.971 163.666 477.656 64.111 479.533C-32.5609 481.409 -5.67154 515.293 -98.9886 580.842C-192.306 646.391 -344.009 554.429 -309.106 449.6C-274.203 352.815 -308.639 366.554 -347.082 229.488Z" stroke="#1A93FE" stroke-width="1.2494"/>
<path d="M-321.468 242.201C-351.761 134.109 -236.941 111.092 -153.053 146.803C-100.783 167.365 -63.1427 115.623 -3.57764 137.158C66.0535 162.34 -3.93195 226.252 85.0316 264.44C175.569 304.144 139.893 466.012 48.1807 467.621C-39.9279 469.229 -15.31 500.82 -99.2249 558.134C-183.14 615.448 -317.627 534.702 -287.71 439.788C-257.794 354.929 -287.126 363.847 -321.468 242.201Z" stroke="#1A93FE" stroke-width="1.2494"/>
<path d="M-295.854 255.639C-322.072 162.647 -221.825 138.765 -148.249 170.531C-101.331 189.504 -66.5417 145.146 -14.6434 163.911C49.3341 187.053 -11.1763 241.454 65.6206 275.839C144.306 312.041 116.121 455.093 32.2509 456.433C-47.2944 457.774 -24.9478 487.073 -99.4607 536.152C-173.974 585.231 -291.244 515.7 -266.314 430.702C-241.383 357.769 -265.613 361.864 -295.854 255.639Z" stroke="#1A93FE" stroke-width="1.2494"/>
<path d="M-270.239 269.117C-292.383 191.226 -206.709 166.479 -143.445 194.299C-101.877 211.682 -69.9401 174.708 -25.7086 190.703C32.6154 211.805 -18.42 256.695 46.2101 287.277C113.043 319.979 92.3492 444.214 16.3217 445.286C-54.6602 446.358 -34.585 473.366 -99.6958 514.21C-164.807 555.054 -264.861 496.738 -244.917 421.655C-224.973 360.648 -244.099 359.922 -270.239 269.117Z" stroke="#1A93FE" stroke-width="1.2494"/>
<path d="M-244.623 282.653C-262.693 219.863 -191.592 194.25 -138.639 218.125C-102.424 233.918 -73.3378 204.33 -36.7731 217.555C15.8973 236.615 -25.663 271.996 26.8004 298.774C81.7815 327.975 68.5782 433.393 0.39328 434.197C-62.0253 435.002 -44.2215 459.717 -99.9303 492.326C-155.639 524.935 -238.478 477.834 -223.519 412.666C-208.561 363.586 -222.584 358.038 -244.623 282.653Z" stroke="#1A93FE" stroke-width="1.2494"/>
<path d="M-219.005 296.274C-233 248.586 -176.473 222.107 -133.832 242.037C-102.967 256.241 -76.7332 234.036 -47.8353 244.491C-0.818405 261.511 -32.9037 287.381 7.3929 310.356C50.522 336.057 44.8095 422.658 -15.5329 423.194C-69.3881 423.73 -53.8557 446.153 -100.163 470.527C-146.469 494.901 -212.092 459.016 -202.119 403.763C-192.147 366.609 -201.067 356.239 -219.005 296.274Z" stroke="#1A93FE" stroke-width="1.2494"/>
<path d="M-193.384 310.026C-203.304 277.438 -161.35 250.094 -129.021 266.078C-103.508 278.692 -80.125 263.872 -58.8939 271.557C-17.5306 286.537 -40.1409 302.897 -12.011 322.067C19.266 344.268 21.0444 412.052 -31.4555 412.32C-76.7474 412.588 -63.4864 432.719 -100.391 448.858C-137.296 464.997 -185.702 440.328 -180.716 394.99C-175.73 369.762 -179.547 354.57 -193.384 310.026Z" stroke="#1A93FE" stroke-width="1.2494"/>
</g>
</svg>
