<svg width="203" height="709" viewBox="0 0 203 709" fill="none" xmlns="http://www.w3.org/2000/svg">
<g opacity="0.13">
<path d="M9.46546 181.095C-41.2004 -2.50245 146.485 -21.1904 281.932 34.2464C360.959 62.7568 412.857 -25.9085 510.756 9.47671C608.655 44.8619 491.294 156.325 641.092 213.531C790.889 270.737 717.759 526.69 586.834 529.639C455.909 532.588 491.884 575.64 360.959 674.129C230.033 772.617 9.46576 635.794 64.3127 491.305C119.16 346.815 64.3121 379.842 9.46546 181.095Z" stroke="#1A93FE" stroke-width="1.2494"/>
<path d="M35.0785 193.192C-11.5129 24.6961 161.6 5.14242 286.734 56.634C360.41 83.5548 409.457 2.27405 499.689 34.8892C591.934 68.2339 484.049 170.187 621.679 223.589C759.625 277.295 693.986 514.431 570.903 517.111C448.541 519.792 482.245 560.552 360.722 650.806C239.198 741.06 35.847 615.452 85.7079 480.878C135.569 348.314 85.8242 376.519 35.0785 193.192Z" stroke="#1A93FE" stroke-width="1.2494"/>
<path d="M60.6917 205.29C18.1748 51.8949 176.714 31.4756 291.537 79.022C359.862 104.353 406.057 30.457 488.622 60.3021C575.214 91.6062 476.803 184.049 602.267 233.648C728.36 283.853 670.212 502.172 554.972 504.584C441.174 506.997 472.606 545.465 360.485 627.484C248.364 709.503 62.2283 595.11 107.103 470.451C151.978 349.814 107.336 373.197 60.6917 205.29Z" stroke="#1A93FE" stroke-width="1.2494"/>
<path d="M86.3047 217.389C47.8625 79.0947 191.829 57.8097 296.34 101.411C359.313 125.152 402.656 58.6407 477.555 85.7158C558.493 114.979 469.558 197.912 582.855 243.707C697.096 290.412 646.439 489.914 539.041 492.058C433.806 494.203 462.967 530.379 360.248 604.162C257.529 677.946 88.6096 574.769 128.498 460.025C168.387 351.314 128.849 369.875 86.3047 217.389Z" stroke="#1A93FE" stroke-width="1.2494"/>
<path d="M111.918 229.488C77.5505 106.295 206.944 84.1444 301.143 123.8C358.765 145.952 399.257 86.8251 466.489 111.13C541.773 138.353 462.313 211.775 563.443 253.767C665.832 296.971 622.666 477.656 523.111 479.533C426.439 481.409 453.328 515.293 360.011 580.842C266.694 646.391 114.991 554.429 149.894 449.6C184.797 352.815 150.361 366.554 111.918 229.488Z" stroke="#1A93FE" stroke-width="1.2494"/>
<path d="M137.532 242.201C107.239 134.109 222.059 111.092 305.947 146.803C358.217 167.365 395.857 115.623 455.422 137.158C525.054 162.34 455.068 226.252 544.032 264.44C634.569 304.144 598.893 466.012 507.181 467.621C419.072 469.229 443.69 500.82 359.775 558.134C275.86 615.448 141.373 534.702 171.29 439.788C201.206 354.929 171.874 363.847 137.532 242.201Z" stroke="#1A93FE" stroke-width="1.2494"/>
<path d="M163.146 255.639C136.928 162.647 237.175 138.765 310.751 170.531C357.669 189.504 392.458 145.146 444.357 163.911C508.334 187.053 447.824 241.454 524.621 275.839C603.306 312.041 575.121 455.093 491.251 456.433C411.706 457.774 434.052 487.073 359.539 536.152C285.026 585.231 167.756 515.7 192.686 430.702C217.617 357.769 193.387 361.864 163.146 255.639Z" stroke="#1A93FE" stroke-width="1.2494"/>
<path d="M188.761 269.117C166.617 191.226 252.291 166.479 315.555 194.299C357.123 211.682 389.06 174.708 433.291 190.703C491.615 211.805 440.58 256.695 505.21 287.277C572.043 319.979 551.349 444.214 475.322 445.286C404.34 446.358 424.415 473.366 359.304 514.21C294.193 555.054 194.139 496.738 214.083 421.655C234.027 360.648 214.901 359.922 188.761 269.117Z" stroke="#1A93FE" stroke-width="1.2494"/>
</g>
</svg>
